<svg id="Layer_1" data-name="Layer 1" xmlns="http://www.w3.org/2000/svg" width="412.1" height="72" viewBox="0 0 412.1 72">
  <defs>
    <style>
      .cls-1 {
        fill: #f2f2f2;
      }

      .cls-2 {
        fill: #ccc;
      }
    </style>
  </defs>
  <g>
    <path class="cls-1" d="M157.11,24.65V55.07h-5.94v-42h8.28l6.78,25.14V13.07h5.88v42h-6.78Z"/>
    <path class="cls-1" d="M183.45,31.73H192v6h-8.52V55.07h-6.6v-42h17.46v6H183.45Z"/>
    <path class="cls-1" d="M195.57,13.07H216v6h-6.9v36h-6.6v-36h-6.9Z"/>
    <path class="cls-2" d="M228.8,47.33l5-34.26h6.06l-6.47,42h-9.84l-6.48-42h6.66Z"/>
    <path class="cls-2" d="M262.82,55.07h-6.66L255,47.45h-8.09l-1.15,7.62h-6.05l6.72-42h9.65ZM247.76,41.75h6.36l-3.18-21.24Z"/>
    <path class="cls-2" d="M265.88,13.07h6.6v36h10.86v6H265.88Z"/>
    <path class="cls-2" d="M286.22,13.07h6.6v42h-6.6Z"/>
    <path class="cls-2" d="M297.62,13.07h10.44c6.6,0,9.84,3.66,9.84,10.38V44.69c0,6.72-3.24,10.38-9.84,10.38H297.62Zm6.6,6v30h3.72c2.1,0,3.36-1.08,3.36-4.08V23.15c0-3-1.26-4.08-3.36-4.08Z"/>
    <path class="cls-2" d="M343.4,55.07h-6.66l-1.14-7.62h-8.1l-1.14,7.62H320.3l6.72-42h9.66ZM328.34,41.75h6.36l-3.18-21.24Z"/>
    <path class="cls-2" d="M344.54,13.07h20.4v6H358v36h-6.6v-36h-6.9Z"/>
    <path class="cls-2" d="M367.28,23.15c0-6.72,3.54-10.56,10-10.56s10,3.84,10,10.56V45c0,6.72-3.54,10.56-10,10.56s-10-3.84-10-10.56Zm6.6,22.26c0,3,1.32,4.14,3.42,4.14s3.42-1.14,3.42-4.14V22.73c0-3-1.32-4.14-3.42-4.14s-3.42,1.14-3.42,4.14Z"/>
    <path class="cls-2" d="M405.38,55.07c-.36-1.08-.6-1.74-.6-5.16v-6.6c0-3.9-1.32-5.34-4.32-5.34h-2.28v17.1h-6.6v-42h10c6.84,0,9.78,3.18,9.78,9.66V26c0,4.32-1.38,7.14-4.32,8.52,3.3,1.38,4.38,4.56,4.38,8.94V50a12.37,12.37,0,0,0,.72,5.1Zm-7.2-36V32h2.58c2.46,0,4-1.08,4-4.44V23.39c0-3-1-4.32-3.36-4.32Z"/>
  </g>
  <path class="cls-2" d="M90.79,25.42C99.52,31.36,105.58,36,105.58,36s-47,36-67.87,36S0,55.88,0,36,16.88,0,37.71,0c7.78,0,19.22,5,30.5,11.32q-2.16,1.13-4.26,2.3C53.79,8.12,44.09,4.05,37.71,4.05,19.15,4.05,4.05,18.38,4.05,36s15.1,32,33.66,32C52.12,68,83.47,47.21,98.81,36c-3.46-2.53-7.75-5.55-12.46-8.7C88.08,26.51,89.57,25.88,90.79,25.42ZM37.71,8.1C21.38,8.1,8.1,20.61,8.1,36S21.38,63.9,37.71,63.9C48,63.9,71.56,50.37,91.87,36c-3.19-2.26-6.47-4.5-9.76-6.67-1.28.64-2.64,1.36-4.1,2.15q3.33,2.16,6.77,4.52c-21,14.4-39.6,23.85-47.07,23.85-14.1,0-25.56-10.7-25.56-23.85S23.61,12.15,37.71,12.15c3.66,0,10,2.27,18,6.28q2-1.21,4.1-2.44C50.6,11.19,42.64,8.1,37.71,8.1ZM51.55,20.92c-6.67-3.19-11.42-4.72-13.84-4.72C25.85,16.2,16.2,25.08,16.2,36s9.65,19.8,21.51,19.8C42.6,55.8,57,49.58,77.53,36c-1.2-.79-2.38-1.55-3.53-2.29-1.26.72-2.57,1.47-3.94,2.29C52,47.41,40.74,51.75,37.71,51.75c-9.63,0-17.46-7.06-17.46-15.75s7.83-15.75,17.46-15.75c1.43,0,4.7,1,9.66,3.19Q49.37,22.25,51.55,20.92Z"/>
  <path class="cls-1" d="M132.39,36c0,19.88-16.88,36-37.7,36-6.34,0-15.1-3.34-24.23-8,1.42-.8,2.84-1.6,4.24-2.43,7.8,3.8,14.93,6.35,20,6.35,18.55,0,33.65-14.33,33.65-31.95S113.24,4.05,94.69,4.05c-14.42,0-45.77,20.74-61.11,32C38,39.22,43.73,43.24,50,47.32q-2.38,1.14-4.36,2C34.8,42.11,26.81,36,26.81,36S73.86,0,94.69,0,132.39,16.12,132.39,36Zm-20.24,0c0,8.69-7.84,15.75-17.46,15.75a12.25,12.25,0,0,1-3.28-.69c-1.35.91-2.77,1.84-4.22,2.79a23.87,23.87,0,0,0,7.5,1.95c11.86,0,21.51-8.88,21.51-19.8s-9.65-19.8-21.51-19.8c-4.9,0-19.24,6.22-39.82,19.8q3.85,2.53,7.4,4.74,1.89-1.11,3.92-2.35c-1.25-.76-2.53-1.55-3.86-2.39C80.4,24.59,91.65,20.25,94.69,20.25,104.31,20.25,112.15,27.31,112.15,36Zm12.14,0c0-15.39-13.28-27.9-29.6-27.9C84.37,8.1,60.83,21.63,40.52,36c4.46,3.16,9.09,6.27,13.69,9.21q1.93-1,4.07-2.2c-3.45-2.18-7-4.51-10.67-7,21-14.4,39.6-23.85,47.08-23.85,14.09,0,25.56,10.7,25.56,23.85S108.78,59.85,94.69,59.85c-2.64,0-6.65-1.18-11.66-3.32-1.35.85-2.74,1.71-4.14,2.57,6.49,3,12,4.8,15.8,4.8C111,63.9,124.29,51.38,124.29,36Z"/>
</svg>
